# xmcd
#
# Track frame offsets:
#	150
#	10994
#	22815
#	35072
#	48037
#	60424
#	71673
#	83843
#	93840
#	104021
#	116513
#	131326
#	144461
#	155516
#	168423
#	181381
#	194182
#	206284
#	217154
#	228996
#	242418
#	253131
#	262697
#	273916
#	285707
#	296839
#	308858
#	317205
#	327838
#	339176
#
# Disc length: 4681 seconds
#
# Revision: 0
# Processed by: cddbd v1.5.2PL0 Copyright (c) Steve Scherf et al.
# Submitted via: audiograbber 1.83.01
#
DISCID=b112471e
DTITLE=Tom Jones - Icons CD1
DYEAR=1900
DGENRE=
TTITLE0=Green, Green Grass Of Home
TTITLE1=Love Me Tonight
TTITLE2=You Don't Have To Say You Love Me
TTITLE3=Hot Legs
TTITLE4=Funny How Times Slip Away
TTITLE5=Lady Madonna
TTITLE6=All By Myself
TTITLE7=Upside Down
TTITLE8=Till
TTITLE9=Ladies Night
TTITLE10=Unchained Melody
TTITLE11=The Girl From New York City
TTITLE12=Say You'll Stay Until Tomorrow
TTITLE13=Don't Cry For Me Argentina
TTITLE14=Behind Closed Doors
TTITLE15=Da Ya Think I'm Sexy
TTITLE16=Endless Love
TTITLE17=Proud Mary
TTITLE18=You Win Again
TTITLE19=Yesterday
TTITLE20=I Can See Clearly Now
TTITLE21=Spanish Eyes
TTITLE22=The Closer I Get To You
TTITLE23=Late In The Evening
TTITLE24=Sexy Eyes
TTITLE25=Without Love
TTITLE26=Hound Dog
TTITLE27=Release Me
TTITLE28=The Long And Winding Road
TTITLE29=Delilah
EXTD=
EXTT0=
EXTT1=
EXTT2=
EXTT3=
EXTT4=
EXTT5=
EXTT6=
EXTT7=
EXTT8=
EXTT9=
EXTT10=
EXTT11=
EXTT12=
EXTT13=
EXTT14=
EXTT15=
EXTT16=
EXTT17=
EXTT18=
EXTT19=
EXTT20=
EXTT21=
EXTT22=
EXTT23=
EXTT24=
EXTT25=
EXTT26=
EXTT27=
EXTT28=
EXTT29=
PLAYORDER=
